<svg xmlns="http://www.w3.org/2000/svg" width="19.338" height="19.359" viewBox="0 0 19.338 19.359"><defs><style>.a{fill:#c223f9;}</style></defs><g transform="translate(0)"><g transform="translate(0 0)"><path class="a" d="M-1988.908,72.2h6.165c.175.013.35.021.525.041a18.454,18.454,0,0,1,1.981.237,4.843,4.843,0,0,1,3.493,2.795,7.309,7.309,0,0,1,.579,3.13c0,2.262.016,4.525-.008,6.787a11.408,11.408,0,0,1-.193,2.082,4.908,4.908,0,0,1-2.91,3.706,6.925,6.925,0,0,1-2.815.542q-2.835.036-5.671.039a19.554,19.554,0,0,1-3.26-.182,5.075,5.075,0,0,1-4.239-4.05,14.439,14.439,0,0,1-.222-2.858c-.016-1.393-.021-2.786,0-4.178.014-1.051.042-2.1.12-3.152a5.21,5.21,0,0,1,.877-2.561,5.351,5.351,0,0,1,4.318-2.3C-1989.75,72.247-1989.329,72.226-1988.908,72.2Zm3.1,17.651v-.034c.7,0,1.4.014,2.1,0a16.514,16.514,0,0,0,2.9-.178,3.265,3.265,0,0,0,2.682-2.457,7.227,7.227,0,0,0,.217-1.908c.019-1.96.032-3.92.013-5.88a15.926,15.926,0,0,0-.173-2.483,3.168,3.168,0,0,0-2.507-2.708,10.207,10.207,0,0,0-2.459-.217c-1.6-.019-3.2-.012-4.8-.008a16.458,16.458,0,0,0-2.865.155,3.27,3.27,0,0,0-2.81,2.573,8.626,8.626,0,0,0-.2,2.083q-.021,3.11,0,6.221a12.408,12.408,0,0,0,.153,1.842,3.205,3.205,0,0,0,1.518,2.328,4.183,4.183,0,0,0,2.071.569C-1988.579,89.8-1987.192,89.818-1985.806,89.851Z" transform="translate(1995.496 -72.2)"/><path class="a" d="M-1953.067,109.6a5,5,0,0,1,4.964,4.994,5,5,0,0,1-5.008,4.969,5,5,0,0,1-4.955-5.023A5,5,0,0,1-1953.067,109.6Zm-.031,8.2a3.21,3.21,0,0,0,3.234-3.2,3.213,3.213,0,0,0-3.2-3.238,3.209,3.209,0,0,0-3.241,3.211A3.207,3.207,0,0,0-1953.1,117.8Z" transform="translate(1962.773 -104.902)"/><path class="a" d="M-1885.366,101.159a1.148,1.148,0,0,1-1.163-1.156,1.158,1.158,0,0,1,1.156-1.168,1.167,1.167,0,0,1,1.167,1.161A1.157,1.157,0,0,1-1885.366,101.159Z" transform="translate(1900.228 -95.486)"/></g></g></svg>