<svg xmlns="http://www.w3.org/2000/svg" width="17.598" height="21.117" viewBox="0 0 17.598 21.117"><defs><style>.a{fill:#c223f9;}</style></defs><path class="a" d="M-913.039,126.4a5.327,5.327,0,0,0,3.363,4.982,4.626,4.626,0,0,0,1.7.307v3.434a8.064,8.064,0,0,1-5.062-1.8c0,.112,0,.189,0,.266.008,2.433.021,4.867.024,7.3a6.5,6.5,0,0,1-4.849,6.455,6.292,6.292,0,0,1-7.586-5.074,6.578,6.578,0,0,1,4.341-7.539,6.254,6.254,0,0,1,2.573-.235c.1.012.2.016.2.183-.007,1.079,0,2.158,0,3.238a.353.353,0,0,1-.01.067,8.77,8.77,0,0,0-.97-.108,3,3,0,0,0-2.915,2.906,3.061,3.061,0,0,0,2.346,3.241,2.979,2.979,0,0,0,3.549-2.672,4.712,4.712,0,0,0,.016-.556q0-7.053.006-14.106c0-.095.015-.19.023-.285Z" transform="translate(925.57 -126.398)"/></svg>