<svg xmlns="http://www.w3.org/2000/svg" width="19.183" height="15.747" viewBox="0 0 19.183 15.747"><defs><style>.a{fill:#c223f9;}</style></defs><path class="a" d="M-2031.2,606.593a4.47,4.47,0,0,1-1.6-1.16,4.326,4.326,0,0,1-.8-1.34.66.66,0,0,1,.1-.767,4.343,4.343,0,0,1-1.141-1.576,4.026,4.026,0,0,1-.328-1.521.659.659,0,0,1,.488-.753c-.1-.28-.227-.555-.309-.842a4.153,4.153,0,0,1,.425-3.3.6.6,0,0,1,1.027-.077,9.85,9.85,0,0,0,4.536,3.079c.618.2,1.262.326,1.918.491.017-.257.027-.456.045-.655a4.29,4.29,0,0,1,3.541-3.749,4.243,4.243,0,0,1,3.73,1.058,1.151,1.151,0,0,0,.882.171,2.815,2.815,0,0,0,1.208-.4.609.609,0,0,1,.839.153.958.958,0,0,1,.075.769,4.522,4.522,0,0,1-1.371,2.448.752.752,0,0,0-.246.586,11,11,0,0,1-8.709,10.611,11.28,11.28,0,0,1-8.461-1.432.612.612,0,0,1-.23-.915.572.572,0,0,1,.56-.242,7.019,7.019,0,0,0,3.618-.543C-2031.34,606.664-2031.28,606.633-2031.2,606.593Zm-2.446-9.816a2.9,2.9,0,0,0-.016,1.35,3.018,3.018,0,0,0,1.269,1.857.6.6,0,0,1,.278.734.592.592,0,0,1-.653.4c-.274-.015-.548-.053-.835-.083a3.026,3.026,0,0,0,.883,1.352,3.149,3.149,0,0,0,1.451.728.575.575,0,0,1,.457.4.605.605,0,0,1-.5.8c-.23.053-.466.082-.709.123a.829.829,0,0,0,.046.077c.039.05.077.1.12.146a3.106,3.106,0,0,0,2.192,1.039.636.636,0,0,1,.656.44.62.62,0,0,1-.287.717,8.038,8.038,0,0,1-2.586,1.293c-.219.064-.439.119-.705.19.1.038.158.061.216.079a10.4,10.4,0,0,0,5.465.156,9.786,9.786,0,0,0,7.494-9.817.819.819,0,0,1,.352-.761,3.6,3.6,0,0,0,.991-1.191c-.049,0-.074-.006-.1-.005-.4.012-.8.046-1.2.029a1.336,1.336,0,0,1-.943-.37,3.175,3.175,0,0,0-4.913.612,2.878,2.878,0,0,0-.343,2.217.6.6,0,0,1-.623.762c-.277-.008-.553-.037-.828-.071a11.019,11.019,0,0,1-5.334-2.138C-2032.792,597.518-2033.2,597.143-2033.641,596.777Z" transform="translate(2035.701 -594.346)"/></svg>